<svg xmlns="http://www.w3.org/2000/svg" xmlns:xlink="http://www.w3.org/1999/xlink" width="32" height="32" viewBox="0 0 32 32"><defs><clipPath id="a"><rect width="32" height="32" transform="translate(243 -76)" fill="none"/></clipPath></defs><g transform="translate(-243 76)" clip-path="url(#a)"><path d="M566.478,1933.276a1.051,1.051,0,0,0-.769.321l-2.79,2.806a1.063,1.063,0,0,0,0,1.522l8.977,8.977-8.977,8.977a1.062,1.062,0,0,0,0,1.522l2.79,2.806a1.083,1.083,0,0,0,1.539,0l12.527-12.545a1.061,1.061,0,0,0,0-1.521L567.247,1933.6A1.05,1.05,0,0,0,566.478,1933.276Z" transform="translate(-312.167 -2006.835)" fill="#fff"/></g></svg>