<svg xmlns="http://www.w3.org/2000/svg" xmlns:xlink="http://www.w3.org/1999/xlink" width="32" height="32" viewBox="0 0 32 32"><defs><clipPath id="a"><rect width="32" height="32" transform="translate(5192 33)" fill="#fff"/></clipPath></defs><g transform="translate(-5192 -33)" clip-path="url(#a)"><path d="M1517.768,66.078a7.165,7.165,0,0,0-5.259,1.947,7.343,7.343,0,0,0-1.975,5.478v4.139h-4.842v5.62h4.842V97.674h5.81V83.262h4.823l.741-5.62h-5.563V74.054a3.144,3.144,0,0,1,.57-2.051,2.788,2.788,0,0,1,2.2-.684h2.981V66.306a31.442,31.442,0,0,0-4.329-.228Z" transform="translate(3694.325 -33.078)" fill="#365b4f"/></g></svg>