<svg xmlns="http://www.w3.org/2000/svg" xmlns:xlink="http://www.w3.org/1999/xlink" width="32" height="32" viewBox="0 0 32 32"><defs><clipPath id="a"><rect width="32" height="32" transform="translate(2405 4082)" fill="#fff" stroke="#707070" stroke-width="1"/></clipPath></defs><g transform="translate(-2405 -4082)" clip-path="url(#a)"><g transform="translate(2405 4084)"><path d="M1852.818,934.85a1.355,1.355,0,0,1-.653-.168,1.789,1.789,0,0,1-.172-.113l-.42-.294c-1-.7-3.354-2.332-4.912-3.535-5.975-4.651-9.027-8.005-9.608-10.558a9.719,9.719,0,0,1-.455-2.9,10.3,10.3,0,0,1,2.87-7.337,8.781,8.781,0,0,1,6.26-2.687h0a9.168,9.168,0,0,1,6.779,2.93,9.059,9.059,0,0,1,6.713-3.093h.173c5,0,9.131,4.39,9.2,9.787a10.254,10.254,0,0,1-.412,3.027c-.484,2.445-3.533,5.983-9.288,10.7a57.856,57.856,0,0,1-5.353,4.029,1.348,1.348,0,0,1-.724.211Zm-6.994-24.882a6.154,6.154,0,0,0-4.426,1.877,7.584,7.584,0,0,0-2.092,5.4,7.4,7.4,0,0,0,.355,2.215c.27,1.161,1.707,3.722,8.66,9.135,1.37,1.058,3.421,2.494,4.517,3.256,1.151-.795,2.631-1.935,4.337-3.339,6.794-5.567,8.167-8.189,8.381-9.256a7.846,7.846,0,0,0,.331-2.343c-.05-3.923-2.962-7.114-6.492-7.114l-.135,0a6.45,6.45,0,0,0-5.545,3.334,1.355,1.355,0,0,1-1.159.685,1.409,1.409,0,0,1-1.177-.654,6.476,6.476,0,0,0-5.555-3.2Z" transform="translate(-1836.596 -907.096)" fill="#fff"/><g transform="translate(22.025 4.74)"><path d="M1858.173,918.385a.637.637,0,0,1-.139-.014.679.679,0,0,1-.526-.8l.1-.391a4.145,4.145,0,0,0,.167-1.235c-.026-2.115-1.431-3.771-3.2-3.771a.678.678,0,0,1,0-1.355c2.522,0,4.525,2.244,4.559,5.107a5.437,5.437,0,0,1-.22,1.63l-.073.292a.673.673,0,0,1-.66.539Z" transform="translate(-1853.891 -910.818)" fill="#fff"/></g></g></g></svg>