<svg xmlns="http://www.w3.org/2000/svg" xmlns:xlink="http://www.w3.org/1999/xlink" width="32" height="32" viewBox="0 0 32 32"><defs><clipPath id="a"><rect width="32" height="32" transform="translate(5149 33)" fill="#fff"/></clipPath></defs><g transform="translate(-5149 -33)" clip-path="url(#a)"><path d="M1486.385,88.754a5.335,5.335,0,1,1,3.77-1.562A5.138,5.138,0,0,1,1486.385,88.754Zm0-13.542a8.181,8.181,0,1,0,5.812,2.4A7.914,7.914,0,0,0,1486.385,75.212Zm8.541-2.249a1.92,1.92,0,1,0,1.354.562A1.843,1.843,0,0,0,1494.926,72.962Zm-4.75-2.678q.75.012,2.01.063a16.7,16.7,0,0,1,2.146.209,8.334,8.334,0,0,1,1.49.385,5.455,5.455,0,0,1,3.042,3.042,8.372,8.372,0,0,1,.386,1.49,16.5,16.5,0,0,1,.208,2.145q.052,1.261.062,2.01t0,2.2q-.011,1.449-.01,1.594c0,.1,0,.629.01,1.595s.007,1.7,0,2.2-.028,1.17-.062,2.01a16.48,16.48,0,0,1-.208,2.145,8.356,8.356,0,0,1-.386,1.49,5.455,5.455,0,0,1-3.042,3.042,8.315,8.315,0,0,1-1.49.385,16.429,16.429,0,0,1-2.146.208q-1.261.053-2.01.063t-2.2,0l-1.594-.01-1.594.01q-1.448.011-2.2,0t-2.01-.063a16.418,16.418,0,0,1-2.146-.208,8.3,8.3,0,0,1-1.49-.385,5.453,5.453,0,0,1-3.042-3.042,8.334,8.334,0,0,1-.386-1.49,16.4,16.4,0,0,1-.208-2.145q-.053-1.26-.063-2.01t0-2.2c.007-.966.01-1.5.01-1.595s0-.628-.01-1.594-.007-1.7,0-2.2.028-1.169.063-2.01a16.425,16.425,0,0,1,.208-2.145,8.35,8.35,0,0,1,.386-1.49,5.453,5.453,0,0,1,3.042-3.042,8.318,8.318,0,0,1,1.49-.385,16.686,16.686,0,0,1,2.146-.209q1.26-.051,2.01-.063t2.2,0q1.448.012,1.594.011t1.594-.011Q1489.426,70.274,1490.176,70.284Zm12.1,6.532a8.857,8.857,0,0,0-9.291-9.291q-1.834-.1-6.6-.1t-6.6.1a8.858,8.858,0,0,0-9.292,9.291q-.1,1.833-.1,6.6t.1,6.6a8.858,8.858,0,0,0,9.292,9.292q1.833.1,6.6.1t6.6-.1a8.858,8.858,0,0,0,9.291-9.292q.1-1.833.1-6.6t-.1-6.6Z" transform="translate(3678.615 -34.42)" fill="#365b4f"/></g></svg>