<svg xmlns="http://www.w3.org/2000/svg" width="447.19" height="102.8" viewBox="0 0 447.19 102.8"><g transform="translate(-59.87 -232.04)"><path d="M231,306.5h2.34l6.09,14,6.09-14h2.22v16.72h-1.56V308.48h0l-6.38,14.74h-.68l-6.47-14.74h-.05v14.74H231Z" fill="#898a8c"/><path d="M261.39,321.16a4.88,4.88,0,0,1-2.05,1.8,6.51,6.51,0,0,1-2.68.54,5.66,5.66,0,0,1-2.26-.43,5.08,5.08,0,0,1-1.75-1.19,5.21,5.21,0,0,1-1.12-1.82,6.6,6.6,0,0,1-.39-2.32,6.231,6.231,0,0,1,.4-2.27,5.55,5.55,0,0,1,1.13-1.8,5.629,5.629,0,0,1,6.13-1.21,4.89,4.89,0,0,1,1.61,1.16,5,5,0,0,1,1,1.64,5.49,5.49,0,0,1,.33,1.86v1h-9.16a5.149,5.149,0,0,0,.17,1.14,4.06,4.06,0,0,0,1.92,2.49,3.85,3.85,0,0,0,2,.47,4.53,4.53,0,0,0,2.1-.52,3.69,3.69,0,0,0,1.56-1.41Zm-1.09-4.32a3.19,3.19,0,0,0-.3-1.37,3.54,3.54,0,0,0-.8-1.12,3.85,3.85,0,0,0-2.68-1.05,3.64,3.64,0,0,0-1.92.47,4.339,4.339,0,0,0-1.22,1.09,4.18,4.18,0,0,0-.63,1.19,3,3,0,0,0-.19.79Z" fill="#898a8c"/><path d="M274.42,321.3h-.05a3.58,3.58,0,0,1-.83,1,4.661,4.661,0,0,1-1.07.69,5.631,5.631,0,0,1-1.22.4,6.3,6.3,0,0,1-3.56-.3,5.18,5.18,0,0,1-1.82-1.19,5.5,5.5,0,0,1-1.18-1.82,6.51,6.51,0,0,1,0-4.6,5.5,5.5,0,0,1,1.18-1.82,5.181,5.181,0,0,1,1.82-1.19A6.24,6.24,0,0,1,270,312a6,6,0,0,1,1.25.13,5.13,5.13,0,0,1,1.22.4,5,5,0,0,1,1.07.68,3.73,3.73,0,0,1,.83,1h.05v-8.85h1.41v17.85h-1.41Zm.14-3.54a4.39,4.39,0,0,0-1.32-3.15,4.78,4.78,0,0,0-1.44-1,4.62,4.62,0,0,0-1.8-.35,4.47,4.47,0,0,0-1.79.35,4.23,4.23,0,0,0-1.37,1A3.87,3.87,0,0,0,266,316a5.167,5.167,0,0,0,0,3.47,3.909,3.909,0,0,0,.86,1.41,4.08,4.08,0,0,0,1.37,1,4.3,4.3,0,0,0,1.79.35,4.45,4.45,0,0,0,1.8-.35,4.6,4.6,0,0,0,1.44-1,4.49,4.49,0,0,0,1-1.41,4.43,4.43,0,0,0,.3-1.71Z" fill="#898a8c"/><path d="M279.21,308a1.088,1.088,0,1,1,1.06,1.06A1.06,1.06,0,0,1,279.21,308Zm.35,4.32H281v10.91h-1.42Z" fill="#898a8c"/><path d="M294.13,321.61a5.11,5.11,0,0,1-1.82,1.43,5.18,5.18,0,0,1-2.19.46,6.059,6.059,0,0,1-2.32-.43,5.139,5.139,0,0,1-1.81-1.19,5.52,5.52,0,0,1-1.19-1.82,6.51,6.51,0,0,1,0-4.6,5.52,5.52,0,0,1,1.19-1.82,5.14,5.14,0,0,1,1.81-1.19,6.259,6.259,0,0,1,2.32-.42,5.09,5.09,0,0,1,2.23.49,6.09,6.09,0,0,1,1.83,1.39l-1.14.85a5,5,0,0,0-1.34-1.07,3.33,3.33,0,0,0-1.58-.39,4.55,4.55,0,0,0-1.8.35,4.34,4.34,0,0,0-1.37,1,4.16,4.16,0,0,0-.86,1.42,5.336,5.336,0,0,0,0,3.47,4.06,4.06,0,0,0,2.23,2.37,4.38,4.38,0,0,0,1.8.35,3.3,3.3,0,0,0,1.64-.41,4.189,4.189,0,0,0,1.28-1.1Z" fill="#898a8c"/><path d="M296.23,308a1.066,1.066,0,1,1,2.13,0,1.065,1.065,0,0,1-2.13,0Zm.35,4.32H298v10.91h-1.42Z" fill="#898a8c"/><path d="M302,315.38v-3.07h1.41v1.18a3.939,3.939,0,0,0,.06.73h.07a3.83,3.83,0,0,1,1.41-1.55,4.19,4.19,0,0,1,2.32-.64,4.64,4.64,0,0,1,2.08.4,3.26,3.26,0,0,1,1.26,1.05,3.9,3.9,0,0,1,.64,1.5,9.092,9.092,0,0,1,.17,1.74v6.5H310v-6.43a6.767,6.767,0,0,0-.12-1.28,3.551,3.551,0,0,0-.41-1.12,2.18,2.18,0,0,0-.83-.79,2.82,2.82,0,0,0-1.38-.3,4.09,4.09,0,0,0-1.48.27,3.2,3.2,0,0,0-1.2.83,3.85,3.85,0,0,0-.8,1.39,5.87,5.87,0,0,0-.3,2v5.46H302Z" fill="#898a8c"/><path d="M323.62,318.64v2.62a5.22,5.22,0,0,0,.06,1c.06.3.06.63.11,1h-1.32a9.74,9.74,0,0,1-.15-1.77h0a4,4,0,0,1-1.53,1.55,4.75,4.75,0,0,1-2.3.5,5.471,5.471,0,0,1-1.39-.18,3.64,3.64,0,0,1-1.23-.56,3.25,3.25,0,0,1-.59-4.48,4.07,4.07,0,0,1,1.57-1.1,7.518,7.518,0,0,1,2-.47c.7-.07,1.31-.1,1.85-.1h1.65v-.67a2.32,2.32,0,0,0-.87-2,3.73,3.73,0,0,0-2.2-.61,5,5,0,0,0-3.33,1.23l-.82-1a5,5,0,0,1,1.93-1.14,6.93,6.93,0,0,1,2.22-.39,5,5,0,0,1,3.17.93,3.62,3.62,0,0,1,1.18,3Zm-2.84-.9a12.156,12.156,0,0,0-1.73.12,6.061,6.061,0,0,0-1.51.4,2.9,2.9,0,0,0-1.08.75,1.9,1.9,0,0,0-.17,2.07,2,2,0,0,0,.57.64,2.73,2.73,0,0,0,.79.37,3,3,0,0,0,.89.13,4.57,4.57,0,0,0,1.87-.33,3.12,3.12,0,0,0,1.16-.86,3,3,0,0,0,.61-1.2,5.679,5.679,0,0,0,.16-1.36v-.73Z" fill="#898a8c"/><path d="M347.7,320.6a7.179,7.179,0,0,1-2.79,2.33,8.31,8.31,0,0,1-3.42.71A9.26,9.26,0,0,1,338,323a7.93,7.93,0,0,1-2.73-1.82,8.48,8.48,0,0,1-1.77-2.78,9.67,9.67,0,0,1-.63-3.53,9.54,9.54,0,0,1,.63-3.52,8.539,8.539,0,0,1,1.77-2.77,8.09,8.09,0,0,1,2.73-1.83,9.07,9.07,0,0,1,3.51-.66,8.321,8.321,0,0,1,3.17.6,6.23,6.23,0,0,1,2.59,2L346,309.76a4.57,4.57,0,0,0-2-1.72,5.93,5.93,0,0,0-2.49-.55,7.27,7.27,0,0,0-2.94.57,6.5,6.5,0,0,0-2.23,1.56A6.82,6.82,0,0,0,334.9,312a8.39,8.39,0,0,0-.5,2.91,8.29,8.29,0,0,0,.5,2.9,6.77,6.77,0,0,0,1.42,2.34,6.5,6.5,0,0,0,2.23,1.56,7.271,7.271,0,0,0,2.94.56,6.221,6.221,0,0,0,1.32-.15,5.849,5.849,0,0,0,1.33-.47,6.089,6.089,0,0,0,1.24-.8,5.319,5.319,0,0,0,1-1.17Z" fill="#898a8c"/><path d="M358.63,318.64v2.62a5.22,5.22,0,0,0,.06,1c.06.3.06.63.11,1h-1.32a9.766,9.766,0,0,1-.14-1.77h-.05a4,4,0,0,1-1.52,1.55,4.82,4.82,0,0,1-2.31.5,5.468,5.468,0,0,1-1.39-.18,3.64,3.64,0,0,1-1.23-.56,3.08,3.08,0,0,1-.88-1,3,3,0,0,1-.34-1.49,2.94,2.94,0,0,1,.63-2,4.071,4.071,0,0,1,1.57-1.1,7.608,7.608,0,0,1,2-.47c.7-.07,1.31-.1,1.85-.1h1.65v-.67a2.32,2.32,0,0,0-.87-2,3.73,3.73,0,0,0-2.2-.61,5,5,0,0,0-3.33,1.23l-.82-1a5,5,0,0,1,1.93-1.14,6.93,6.93,0,0,1,2.22-.39,5,5,0,0,1,3.17.93,3.62,3.62,0,0,1,1.18,3Zm-2.84-.9a12.157,12.157,0,0,0-1.73.12,6.061,6.061,0,0,0-1.51.4,2.9,2.9,0,0,0-1.08.75,1.81,1.81,0,0,0-.4,1.18,1.76,1.76,0,0,0,.23.89,2.071,2.071,0,0,0,.57.64,2.671,2.671,0,0,0,.8.37,2.931,2.931,0,0,0,.88.13,4.57,4.57,0,0,0,1.87-.33,3.12,3.12,0,0,0,1.16-.86,2.85,2.85,0,0,0,.61-1.2,5.679,5.679,0,0,0,.16-1.36v-.73Z" fill="#898a8c"/><path d="M362.1,312.31h1.41v1.91h.05a3.729,3.729,0,0,1,.83-1,5,5,0,0,1,1.07-.68,5.129,5.129,0,0,1,1.22-.4,6,6,0,0,1,1.25-.13,6.151,6.151,0,0,1,2.3.42,5.31,5.31,0,0,1,3,3,6.51,6.51,0,0,1,0,4.6,5.31,5.31,0,0,1-3,3,6.26,6.26,0,0,1-3.55.3,5.633,5.633,0,0,1-1.22-.4,4.66,4.66,0,0,1-1.07-.69,3.58,3.58,0,0,1-.83-1h-.05v7.3H362.1Zm1.27,5.45a4.45,4.45,0,0,0,1.32,3.15,4.6,4.6,0,0,0,1.44,1,4.45,4.45,0,0,0,1.8.35,4.3,4.3,0,0,0,1.79-.35,4.079,4.079,0,0,0,1.37-1,3.91,3.91,0,0,0,.86-1.41A5.705,5.705,0,0,0,372,316a3.87,3.87,0,0,0-.86-1.42,4.229,4.229,0,0,0-1.37-1,4.469,4.469,0,0,0-1.79-.35,4.62,4.62,0,0,0-1.8.35,4.781,4.781,0,0,0-1.44,1,4.5,4.5,0,0,0-1.32,3.15Z" fill="#898a8c"/><path d="M376.71,308a1.088,1.088,0,1,1,1.06,1.06A1.06,1.06,0,0,1,376.71,308Zm.35,4.32h1.42v10.91h-1.42Z" fill="#898a8c"/><path d="M382.73,305.37h1.42v17.85h-1.42Z" fill="#898a8c"/><path d="M396.63,318.64v2.62a5.22,5.22,0,0,0,.06,1c.06.3.06.63.11,1h-1.33a10.766,10.766,0,0,1-.14-1.77h0a4,4,0,0,1-1.53,1.55,4.75,4.75,0,0,1-2.3.5,5.41,5.41,0,0,1-1.39-.18,3.64,3.64,0,0,1-1.23-.56,3.25,3.25,0,0,1-.59-4.48,4.071,4.071,0,0,1,1.57-1.1,7.54,7.54,0,0,1,2-.47c.7-.07,1.32-.1,1.86-.1h1.65v-.67a2.32,2.32,0,0,0-.87-2,3.75,3.75,0,0,0-2.2-.61,5,5,0,0,0-3.33,1.23l-.82-1a4.88,4.88,0,0,1,1.93-1.14,6.931,6.931,0,0,1,2.22-.39,5,5,0,0,1,3.16.93,3.59,3.59,0,0,1,1.18,3Zm-2.83-.9a12,12,0,0,0-1.73.12,6,6,0,0,0-1.51.4,2.9,2.9,0,0,0-1.08.75,1.93,1.93,0,0,0-.18,2.07,2.1,2.1,0,0,0,.58.64,2.732,2.732,0,0,0,.79.37,3,3,0,0,0,.89.13,4.519,4.519,0,0,0,1.86-.33,3.08,3.08,0,0,0,1.17-.86,3,3,0,0,0,.6-1.2,5.691,5.691,0,0,0,.17-1.36v-.73Z" fill="#898a8c"/><path d="M400.41,315.38v-3.07h1.42v1.18a3.418,3.418,0,0,0,.05.73,5,5,0,0,1,1.4-1.58,3.43,3.43,0,0,1,2.07-.61,2.858,2.858,0,0,1,.42,0l.41.08-.16,1.4a1.56,1.56,0,0,0-.55-.1,3.891,3.891,0,0,0-1.59.3,3,3,0,0,0-1.11.81,3.409,3.409,0,0,0-.65,1.22,5.131,5.131,0,0,0-.21,1.5v6h-1.42Z" fill="#898a8c"/><path d="M319.68,255.15h4a1.21,1.21,0,0,1,.71.44l18.32,22.59.65.77V255.2h5.43v34.07h-4.17c-.2,0-.42-.25-.57-.43q-9.07-11.11-18.14-22.24l-.8-1v23.59h-5.44Z" fill="#898a8c"/><path d="M230.3,255.1c4.65.3,9.29-.49,13.84.67a16.87,16.87,0,0,1,1.38,32.43,18.341,18.341,0,0,1-6,1.06h-9.26Zm5.43,28.9a50.387,50.387,0,0,0,6.23-.37c4.25-.68,7.42-2.88,9-7.06a12.3,12.3,0,0,0,.68-5.24,10.69,10.69,0,0,0-7-9.76c-2.84-1.17-5.81-1-8.78-.91,0,0-.07.05-.13.1Z" fill="#898a8c"/><path d="M282,260.14v7.79h12.45v5.63H282v10.69h16.59v5h-22v-34h21v4.94Z" fill="#898a8c"/><path d="M367.71,284l4.12-3.84a27.589,27.589,0,0,0,2.16,1.94c2.69,2,5.61,2.93,8.93,1.79a4.38,4.38,0,0,0,3.3-3.85,2.49,2.49,0,0,0-.83-2.2,28.784,28.784,0,0,0-3.63-2.44c-2.12-1.15-4.33-2.1-6.45-3.24a24.484,24.484,0,0,1-3-2.14c-4.55-3.5-3.19-10.33.39-12.93a12,12,0,0,1,5.87-2.33,16,16,0,0,1,9.45,1.64,29.228,29.228,0,0,1,2.55,1.76l-4.27,3.92a10,10,0,0,0-4.56-2.28,6.25,6.25,0,0,0-4.61.81,3.46,3.46,0,0,0,0,6c.83.48,1.71.89,2.58,1.3a40.379,40.379,0,0,1,8.85,5.14,8.62,8.62,0,0,1,3.06,9.46c-.65,2.59-2.5,4.25-4.71,5.51-5.79,3.32-14.68,1.59-18.86-3.63A4.88,4.88,0,0,1,367.71,284Z" fill="#898a8c"/><path d="M459.54,255.21v4.94h-9.92v29.07h-5.47v-29h-10v-5Z" fill="#898a8c"/><path d="M415.18,289.23h-5.33v-34h5.33Z" fill="#898a8c"/><path d="M492.54,255.15l14.52,34.12H503c-1.88,0-1.88,0-2.61-1.75-1.07-2.57-2.14-5.15-3.23-7.71-.11-.24-.42-.56-.64-.56H483.78c-1.12,2.69-2.23,5.35-3.35,8-.29.67-.43,1.57-.94,1.93s-1.37.11-2.08.11H473.7c.08-.21.14-.43.22-.63q7-16.39,13.95-32.79a.89.89,0,0,1,1-.66C490.08,255.18,491.3,255.15,492.54,255.15Zm-2.2,8.29-4.25,10.26h8.51C493.18,270.29,491.8,267,490.34,263.44Z" fill="#898a8c"/><path d="M488.89,252.68c.06-.28.08-.47.14-.66.61-2.11,1.22-4.23,1.85-6.33.06-.22.3-.55.46-.56h5.17c-.29.57-.52,1-.77,1.5-1,1.84-1.95,3.67-2.9,5.51a.88.88,0,0,1-.93.57C490.93,252.65,490,252.68,488.89,252.68Z" fill="#898a8c"/><path d="M144.8,232.09h-8.34c13.93,9.83,24.9,24.78,24.9,49.47A48.18,48.18,0,0,1,121.43,329a48.13,48.13,0,0,0,11.59-10,57.87,57.87,0,0,0,13.49-37.49c0-18.21-4.94-33.21-14.42-44.9-1.31-1.61-2.67-3.14-4.07-4.57H120.8c11.37,9.91,19.84,24.68,20.53,47.06q.06,1.71,0,3.45a52,52,0,0,1-12.25,33.2c-6.79,7.94-15.52,12.9-24.39,13.76a44.68,44.68,0,0,0,10.43-10.69,65.23,65.23,0,0,0,11.38-37.31c0-17.58-3.64-32-10.5-43.4a61.684,61.684,0,0,0-4.16-6.07h-6.45c9.42,10.48,15.61,26.12,16,48.27v3.29A58.78,58.78,0,0,1,111,316c-5.86,8.26-13.41,13.44-20.31,13.7a.18.18,0,0,0-.09,0H88.8a43.65,43.65,0,0,0,8.49-11c6-10.61,9.26-23.79,9.26-37.12,0-21.13-3.43-37.66-10.22-49.47h-6c7.39,11.06,11.12,27.6,11.12,49.47,0,12.46-3,24.75-8.59,34.61-4.63,8.23-10.56,13.55-15.09,13.55H65V232.09H59.87V334.84h53.39a53.28,53.28,0,0,0,53.23-53.28c0-18.85-6.17-34.47-18.34-46.41Q146.51,233.55,144.8,232.09Z" fill="#deb269"/></g></svg>