<svg xmlns="http://www.w3.org/2000/svg" xmlns:xlink="http://www.w3.org/1999/xlink" width="32" height="32" viewBox="0 0 32 32"><defs><clipPath id="a"><rect width="32" height="32" transform="translate(-1534 6516)" fill="#fff" stroke="#707070" stroke-width="1"/></clipPath></defs><g transform="translate(1534 -6516)" clip-path="url(#a)"><path d="M565.728,6502.292a.551.551,0,0,1-.4.169H539.041a.578.578,0,0,1-.571-.571v-13.714a10.42,10.42,0,0,0,1.232,1.178q4.785,3.68,7.607,6.037.911.767,1.482,1.2a8.272,8.272,0,0,0,1.545.866,4.481,4.481,0,0,0,1.83.437h.036a4.48,4.48,0,0,0,1.83-.437,8.269,8.269,0,0,0,1.545-.866q.571-.429,1.482-1.2,2.821-2.358,7.607-6.037a10.473,10.473,0,0,0,1.232-1.178v13.714A.551.551,0,0,1,565.728,6502.292Zm-.661-16.821a8.4,8.4,0,0,1-1.795,2.063q-3.446,2.714-7.161,5.66l-.625.527q-.518.438-.821.67t-.795.562a4.7,4.7,0,0,1-.9.491,2.122,2.122,0,0,1-.768.161h-.036a2.12,2.12,0,0,1-.768-.161,4.686,4.686,0,0,1-.9-.491q-.491-.33-.795-.562t-.821-.67l-.625-.527q-3.714-2.945-7.161-5.66a6.252,6.252,0,0,1-2.625-5.072.581.581,0,0,1,.571-.572h26.286a.645.645,0,0,1,.25.046.328.328,0,0,1,.161.133c.036.06.068.114.1.161a.493.493,0,0,1,.054.223c.006.1.009.179.009.233v.438A4.463,4.463,0,0,1,565.067,6485.471Zm2.277-5.027a2.753,2.753,0,0,0-2.018-.839H539.041a2.865,2.865,0,0,0-2.857,2.857v19.429a2.866,2.866,0,0,0,2.857,2.857h26.286a2.866,2.866,0,0,0,2.857-2.857v-19.429A2.754,2.754,0,0,0,567.344,6480.443Z" transform="translate(-2070.183 39.395)" fill="#b0c1b5"/></g></svg>