<svg xmlns="http://www.w3.org/2000/svg" width="106.62" height="102.8" viewBox="0 0 106.62 102.8"><g transform="translate(-3395 -8762)"><path d="M144.8,232.09h-8.34c13.93,9.83,24.9,24.78,24.9,49.47A48.18,48.18,0,0,1,121.43,329a48.13,48.13,0,0,0,11.59-10,57.87,57.87,0,0,0,13.49-37.49c0-18.21-4.94-33.21-14.42-44.9-1.31-1.61-2.67-3.14-4.07-4.57H120.8c11.37,9.91,19.84,24.68,20.53,47.06q.06,1.71,0,3.45a52,52,0,0,1-12.25,33.2c-6.79,7.94-15.52,12.9-24.39,13.76a44.68,44.68,0,0,0,10.43-10.69,65.23,65.23,0,0,0,11.38-37.31c0-17.58-3.64-32-10.5-43.4a61.684,61.684,0,0,0-4.16-6.07h-6.45c9.42,10.48,15.61,26.12,16,48.27v3.29A58.78,58.78,0,0,1,111,316c-5.86,8.26-13.41,13.44-20.31,13.7a.18.18,0,0,0-.09,0H88.8a43.65,43.65,0,0,0,8.49-11c6-10.61,9.26-23.79,9.26-37.12,0-21.13-3.43-37.66-10.22-49.47h-6c7.39,11.06,11.12,27.6,11.12,49.47,0,12.46-3,24.75-8.59,34.61-4.63,8.23-10.56,13.55-15.09,13.55H65V232.09H59.87V334.84h53.39a53.28,53.28,0,0,0,53.23-53.28c0-18.85-6.17-34.47-18.34-46.41Q146.51,233.55,144.8,232.09Z" transform="translate(3335.13 8529.96)" fill="#deb269"/></g></svg>