<svg xmlns="http://www.w3.org/2000/svg" xmlns:xlink="http://www.w3.org/1999/xlink" width="32" height="32" viewBox="0 0 32 32"><defs><clipPath id="a"><rect width="32" height="32" transform="translate(-1536 6577)" fill="#fff" stroke="#707070" stroke-width="1"/></clipPath></defs><g transform="translate(1536 -6577)" clip-path="url(#a)"><path d="M551.594,6559.17a5.282,5.282,0,1,1,3.734-1.547A5.089,5.089,0,0,1,551.594,6559.17Zm7.468-12.745a10.563,10.563,0,0,0-18.031,7.465,8.674,8.674,0,0,0,.681,3.692l7.53,15.963a2.369,2.369,0,0,0,.959,1.072,2.666,2.666,0,0,0,2.785,0,2.5,2.5,0,0,0,.98-1.072l7.51-15.963a8.672,8.672,0,0,0,.681-3.692A10.17,10.17,0,0,0,559.062,6546.425Z" transform="translate(-2071.486 33.99)" fill="#b0c1b5"/></g></svg>