<svg xmlns="http://www.w3.org/2000/svg" xmlns:xlink="http://www.w3.org/1999/xlink" width="32" height="32" viewBox="0 0 32 32"><defs><clipPath id="a"><rect width="32" height="32" transform="translate(5105 33)" fill="#fff"/></clipPath></defs><g transform="translate(-5105 -33)" clip-path="url(#a)"><path d="M1383.693,88.469a8.2,8.2,0,1,1,5.783-2.4A7.884,7.884,0,0,1,1383.693,88.469Zm16.865,5.372-6.267-6.268a12.511,12.511,0,0,0,2.266-7.291,12.638,12.638,0,0,0-1.014-5,12.6,12.6,0,0,0-6.852-6.851,12.817,12.817,0,0,0-9.995,0,12.6,12.6,0,0,0-6.852,6.851,12.824,12.824,0,0,0,0,10,12.6,12.6,0,0,0,6.852,6.851,12.842,12.842,0,0,0,12.288-1.252l6.268,6.249a2.169,2.169,0,0,0,1.644.694,2.338,2.338,0,0,0,1.663-3.983Z" transform="translate(3735.17 -33.483)" fill="#365b4f"/></g></svg>