<svg xmlns="http://www.w3.org/2000/svg" xmlns:xlink="http://www.w3.org/1999/xlink" width="32" height="32" viewBox="0 0 32 32"><defs><clipPath id="a"><rect width="32" height="32" transform="translate(-1536 6408)" fill="#fff" stroke="#707070" stroke-width="1"/></clipPath></defs><g transform="translate(1536 -6408)" clip-path="url(#a)"><path d="M565.49,6385.671q-.136-.409-1.727-1.2-.432-.251-1.227-.683t-1.443-.8q-.648-.363-1.216-.7-.091-.067-.568-.4a6.387,6.387,0,0,0-.807-.488,1.493,1.493,0,0,0-.648-.16,1.89,1.89,0,0,0-1.137.648,11.075,11.075,0,0,0-1.25,1.41,13.756,13.756,0,0,1-1.2,1.409,1.733,1.733,0,0,1-1.045.648,1.541,1.541,0,0,1-.511-.114,4.974,4.974,0,0,1-.466-.193c-.106-.052-.288-.159-.546-.318s-.4-.246-.432-.261a22.528,22.528,0,0,1-9.3-9.3c-.015-.031-.1-.174-.262-.432s-.265-.439-.318-.545a4.97,4.97,0,0,1-.193-.466,1.529,1.529,0,0,1-.114-.512,1.73,1.73,0,0,1,.648-1.045,13.665,13.665,0,0,1,1.409-1.205,11.04,11.04,0,0,0,1.409-1.25,1.887,1.887,0,0,0,.648-1.137,1.487,1.487,0,0,0-.159-.647,6.409,6.409,0,0,0-.489-.807q-.33-.478-.4-.569-.341-.568-.7-1.216c-.243-.433-.508-.912-.8-1.443s-.515-.938-.682-1.228q-.8-1.59-1.2-1.727a1.274,1.274,0,0,0-.477-.069,7.508,7.508,0,0,0-1.6.227,9.1,9.1,0,0,0-1.557.478,6.091,6.091,0,0,0-2.409,2.772,8.814,8.814,0,0,0-1.159,4.227,8.993,8.993,0,0,0,.08,1.206,9.324,9.324,0,0,0,.284,1.306c.136.478.246.833.33,1.069s.239.655.466,1.261.363.978.409,1.114a20.563,20.563,0,0,0,1.886,3.977,38.951,38.951,0,0,0,10.91,10.91,20.526,20.526,0,0,0,3.977,1.886q.2.069,1.114.409t1.262.466q.352.125,1.068.33a9.309,9.309,0,0,0,1.307.284,9.066,9.066,0,0,0,1.2.079,8.816,8.816,0,0,0,4.227-1.159,6.089,6.089,0,0,0,2.773-2.409,9.056,9.056,0,0,0,.477-1.556,7.522,7.522,0,0,0,.227-1.6,1.279,1.279,0,0,0-.068-.478Z" transform="translate(-2069.557 47.124)" fill="#b0c1b5"/></g></svg>