<svg xmlns="http://www.w3.org/2000/svg" xmlns:xlink="http://www.w3.org/1999/xlink" width="32" height="32" viewBox="0 0 32 32"><defs><clipPath id="a"><rect width="32" height="32" transform="translate(-1534 6464)" fill="#fff" stroke="#707070" stroke-width="1"/></clipPath></defs><g transform="translate(1534 -6464)" clip-path="url(#a)"><path d="M551.39,6435.422a.913.913,0,0,1-.452-.143,13.125,13.125,0,0,1-3.1-2.077,9.253,9.253,0,0,1-2.1-2.817.586.586,0,0,1-.1-.308q0-.206.709-.956a2.086,2.086,0,0,0,.709-1.182,12.054,12.054,0,0,0-.514-1.542q-.514-1.4-.679-1.809a1.489,1.489,0,0,0-.319-.565.846.846,0,0,0-.545-.133,3.448,3.448,0,0,1-.391-.031,3.2,3.2,0,0,0-.37-.031,1.556,1.556,0,0,0-1.069.452,4.542,4.542,0,0,0-1.521,3.249v.165a7.19,7.19,0,0,0,1.46,3.988,27.113,27.113,0,0,0,3.043,3.8,11.734,11.734,0,0,0,3.5,2.425,11.093,11.093,0,0,0,3.906,1.274,4.868,4.868,0,0,0,2.1-.544,2.757,2.757,0,0,0,1.46-1.347,4.335,4.335,0,0,0,.349-1.562.885.885,0,0,0-.041-.309,8.983,8.983,0,0,0-1.84-1.089,9.388,9.388,0,0,0-2-.9q-.268,0-1.069,1t-1.11,1Zm-9.087,6.765-4.975,1.583,1.624-4.79a12.785,12.785,0,0,1-1.439-12.572,12.716,12.716,0,0,1,6.877-6.877,12.711,12.711,0,0,1,10.013,0,12.716,12.716,0,0,1,6.877,6.877,12.706,12.706,0,0,1,0,10.013,12.718,12.718,0,0,1-6.877,6.877,12.782,12.782,0,0,1-12.1-1.11Zm-3.865-21.731a15.66,15.66,0,0,0-3.31,4.945,15.412,15.412,0,0,0,.987,14.011l-2.8,8.327,8.573-2.755a15.262,15.262,0,0,0,7.5,1.933,15.065,15.065,0,0,0,6.014-1.234,15.322,15.322,0,0,0,8.255-8.254,15.275,15.275,0,0,0,0-12.027,15.314,15.314,0,0,0-8.255-8.254,15.277,15.277,0,0,0-12.027,0A15.647,15.647,0,0,0,538.438,6420.455Z" transform="translate(-2067.318 48.088)" fill="#b0c1b5"/></g></svg>