<svg xmlns="http://www.w3.org/2000/svg" xmlns:xlink="http://www.w3.org/1999/xlink" width="32" height="32" viewBox="0 0 32 32"><defs><clipPath id="a"><rect width="32" height="32" transform="translate(5235 33)" fill="#fff"/></clipPath></defs><g transform="translate(-5235 -33)" clip-path="url(#a)"><path d="M1546.313,75.263l8.625,4.509-8.625,4.454Zm-7.876-6.076c-.012,0-.113.009-.3.026s-.327.036-.41.053-.223.045-.419.08a2.511,2.511,0,0,0-.507.143q-.214.089-.5.231a3.465,3.465,0,0,0-.552.348,4.253,4.253,0,0,0-.517.472l-.25.3a4.545,4.545,0,0,0-.57,1.1,7.087,7.087,0,0,0-.446,1.773,37.774,37.774,0,0,0-.321,5.168v3.136q.018.731.1,2.023t.223,2.432a6.785,6.785,0,0,0,.472,1.8,5.932,5.932,0,0,0,.517,1.042,3.419,3.419,0,0,0,.276.33,3.548,3.548,0,0,0,1.007.73,5.38,5.38,0,0,0,.908.374,8.309,8.309,0,0,0,.971.179l.641.071.873.072q.856.053,3.573.134t6.406.116q6.7,0,11.173-.338c.012,0,.11-.009.294-.027s.321-.036.41-.053.232-.045.427-.08a2.529,2.529,0,0,0,.508-.142c.143-.06.309-.134.5-.223a3,3,0,0,0,.552-.338,4.258,4.258,0,0,0,.517-.472l.25-.3a4.525,4.525,0,0,0,.57-1.1,7.119,7.119,0,0,0,.446-1.773,37.848,37.848,0,0,0,.321-5.168V78.168q-.018-.731-.1-2.023t-.222-2.432a6.807,6.807,0,0,0-.472-1.8,6.024,6.024,0,0,0-.517-1.043,3.52,3.52,0,0,0-.276-.33,4.271,4.271,0,0,0-.517-.472,3.465,3.465,0,0,0-.552-.348q-.285-.142-.5-.231a2.516,2.516,0,0,0-.508-.143c-.2-.035-.336-.062-.418-.08s-.22-.035-.41-.053-.291-.026-.3-.026l-1.3-.072q-1.3-.089-4.09-.169t-5.782-.08q-6.7,0-11.173.321Z" transform="translate(3701.423 -30.624)" fill="#365b4f"/></g></svg>